<mxfile compressed="false" type="device">
    <diagram id="Page-1" name="Page-1">
      <mxGraphModel arrows="1" connect="1" dx="1360" dy="864" fold="1" grid="1" gridSize="10" guides="1" math="0" page="1" pageHeight="1169" pageScale="1" pageWidth="827" shadow="1" tooltips="1">
        <root>
          <mxCell id="0" />   
          <mxCell id="1" parent="0" />
        <object bottom_label="cisco WS-C6509" description="{&#10;    &quot;vlans&quot;: {&#10;        &quot;101&quot;: &quot;test_vlan&quot;,&#10;        &quot;200&quot;: &quot;ProdVMS&quot;&#10;    }&#10;}" id="switch-1" label="switch-1" top_label="10.1.1.1">
      <mxCell parent="1" style="rounded=1;whiteSpace=wrap;html=1;" vertex="1">
          <mxGeometry as="geometry" height="60" width="120" x="200" y="150" />
      </mxCell>
    </object><object bottom_label="cisco WS-C6509" description="{&#10;    &quot;vlans&quot;: {&#10;        &quot;101&quot;: &quot;test_vlan&quot;,&#10;        &quot;200&quot;: &quot;ProdVMS&quot;&#10;    }&#10;}" id="switch-2" label="switch-2" top_label="10.2.2.2">
      <mxCell parent="1" style="rounded=1;whiteSpace=wrap;html=1;" vertex="1">
          <mxGeometry as="geometry" height="60" width="120" x="200" y="150" />
      </mxCell>
    </object><object bottom_label="cisco WS-C3560-48TS" id="switch-3" label="switch-3" top_label="10.3.3.3">
      <mxCell parent="1" style="rounded=1;whiteSpace=wrap;html=1;" vertex="1">
          <mxGeometry as="geometry" height="60" width="120" x="200" y="150" />
      </mxCell>
    </object><object bottom_label="cisco WS-C3560-48TS" id="switch-4" label="switch-4" top_label="10.4.4.4">
      <mxCell parent="1" style="rounded=1;whiteSpace=wrap;html=1;" vertex="1">
          <mxGeometry as="geometry" height="60" width="120" x="200" y="150" />
      </mxCell>
    </object><object description="{&#10;    &quot;switch-1:Ge4/6&quot;: {&#10;        &quot;description&quot;: &quot;switch-2: trunk&quot;,&#10;        &quot;is_l2&quot;: true,&#10;        &quot;l2_mode&quot;: &quot;trunk&quot;,&#10;        &quot;lag_id&quot;: &quot;3&quot;,&#10;        &quot;lag_mode&quot;: &quot;active&quot;,&#10;        &quot;trunk_vlans&quot;: &quot;200,201,202,203,204,205&quot;&#10;    },&#10;    &quot;switch-2:Ge1/5&quot;: {&#10;        &quot;description&quot;: &quot;switch-1: trunk&quot;,&#10;        &quot;is_l2&quot;: true,&#10;        &quot;l2_mode&quot;: &quot;trunk&quot;,&#10;        &quot;lag_id&quot;: &quot;3&quot;,&#10;        &quot;lag_mode&quot;: &quot;active&quot;,&#10;        &quot;trunk_vlans&quot;: &quot;200,201,202,203,204,205&quot;&#10;    }&#10;}" id="0d1e25a0122c562fa9bc515040ed5607" label="" source="switch-1" src_label="Ge4/6" target="switch-2" trgt_label="Ge1/5">
      <mxCell edge="1" parent="1" source="switch-1" style="endArrow=none;" target="switch-2">
          <mxGeometry as="geometry" relative="1" />
      </mxCell>
    </object><object description="{&#10;    &quot;switch-1:Ge4/7&quot;: {&#10;        &quot;description&quot;: &quot;switch-2: trunk&quot;,&#10;        &quot;is_l2&quot;: true,&#10;        &quot;l2_mode&quot;: &quot;trunk&quot;,&#10;        &quot;lag_id&quot;: &quot;3&quot;,&#10;        &quot;lag_mode&quot;: &quot;active&quot;,&#10;        &quot;trunk_vlans&quot;: &quot;200,201,202,203,204,205&quot;&#10;    },&#10;    &quot;switch-2:Ge1/6&quot;: {&#10;        &quot;description&quot;: &quot;switch-1: trunk&quot;,&#10;        &quot;is_l2&quot;: true,&#10;        &quot;l2_mode&quot;: &quot;trunk&quot;,&#10;        &quot;lag_id&quot;: &quot;3&quot;,&#10;        &quot;lag_mode&quot;: &quot;active&quot;,&#10;        &quot;trunk_vlans&quot;: &quot;200,201,202,203,204,205&quot;&#10;    }&#10;}" id="a4c0ec5bee2d93141cf222a02c2430b0" label="" source="switch-1" src_label="Ge4/7" target="switch-2" trgt_label="Ge1/6">
      <mxCell edge="1" parent="1" source="switch-1" style="endArrow=none;" target="switch-2">
          <mxGeometry as="geometry" relative="1" />
      </mxCell>
    </object><object description="{&#10;    &quot;switch-1:Ge1/1&quot;: {&#10;        &quot;description&quot;: &quot;switch-3:Gi0/1&quot;,&#10;        &quot;is_l2&quot;: true,&#10;        &quot;l2_mode&quot;: &quot;trunk&quot;,&#10;        &quot;lag_id&quot;: &quot;11&quot;,&#10;        &quot;lag_mode&quot;: &quot;active&quot;,&#10;        &quot;mtu&quot;: &quot;9216&quot;,&#10;        &quot;state&quot;: {&#10;            &quot;admin&quot;: &quot;up&quot;,&#10;            &quot;bw_kbits&quot;: &quot;10000000&quot;,&#10;            &quot;description&quot;: &quot;switch-3:Gi0/1&quot;,&#10;            &quot;duplex&quot;: &quot;Full&quot;,&#10;            &quot;hardware&quot;: &quot;Ten Gigabit Ethernet Port&quot;,&#10;            &quot;is_physical_port&quot;: true,&#10;            &quot;line&quot;: &quot;up&quot;,&#10;            &quot;line_status&quot;: &quot;connected&quot;,&#10;            &quot;link_speed&quot;: &quot;10Gb/s&quot;,&#10;            &quot;link_type&quot;: &quot;auto&quot;,&#10;            &quot;mac&quot;: &quot;a89d.2163.1111&quot;,&#10;            &quot;media_type&quot;: &quot;10GBase-LR&quot;,&#10;            &quot;mtu&quot;: &quot;9216&quot;&#10;        },&#10;        &quot;trunk_vlans&quot;: &quot;101&quot;&#10;    },&#10;    &quot;switch-3:Ge0/1&quot;: {}&#10;}" id="6c9855a7f657e1b36f49ff33306a96fa" label="" source="switch-1" src_label="Ge1/1" target="switch-3" trgt_label="Ge0/1">
      <mxCell edge="1" parent="1" source="switch-1" style="endArrow=none;" target="switch-3">
          <mxGeometry as="geometry" relative="1" />
      </mxCell>
    </object><object description="{&#10;    &quot;switch-1:Ge1/2&quot;: {&#10;        &quot;description&quot;: &quot;SW4 Routing Peering&quot;,&#10;        &quot;ip&quot;: &quot;10.0.0.1 255.255.255.0&quot;,&#10;        &quot;state&quot;: {&#10;            &quot;admin&quot;: &quot;up&quot;,&#10;            &quot;bw_kbits&quot;: &quot;1000000&quot;,&#10;            &quot;description&quot;: &quot;SW4 Routing Peering&quot;,&#10;            &quot;duplex&quot;: &quot;Full&quot;,&#10;            &quot;hardware&quot;: &quot;Ten Gigabit Ethernet Port&quot;,&#10;            &quot;is_physical_port&quot;: true,&#10;            &quot;line&quot;: &quot;up&quot;,&#10;            &quot;line_status&quot;: &quot;connected&quot;,&#10;            &quot;link_speed&quot;: &quot;1000Mb/s&quot;,&#10;            &quot;link_type&quot;: &quot;auto&quot;,&#10;            &quot;mac&quot;: &quot;a89d.2163.2222&quot;,&#10;            &quot;media_type&quot;: &quot;1000BaseT&quot;,&#10;            &quot;mtu&quot;: &quot;1500&quot;&#10;        },&#10;        &quot;vrf&quot;: &quot;VRF1&quot;&#10;    },&#10;    &quot;switch-4:Ge0/10&quot;: {}&#10;}" id="1a55473cf64b1d33fe9a470093808d0d" label="" source="switch-1" src_label="Ge1/2" target="switch-4" trgt_label="Ge0/10">
      <mxCell edge="1" parent="1" source="switch-1" style="endArrow=none;" target="switch-4">
          <mxGeometry as="geometry" relative="1" />
      </mxCell>
    </object></root>
      </mxGraphModel>
    </diagram></mxfile>